<?xml version="1.0" standalone="no"?><!DOCTYPE svg PUBLIC "-//W3C//DTD SVG 1.1//EN" "http://www.w3.org/Graphics/SVG/1.1/DTD/svg11.dtd"><svg t="1530445335289" class="icon" style="" viewBox="0 0 1024 1024" version="1.1" xmlns="http://www.w3.org/2000/svg" p-id="4914" xmlns:xlink="http://www.w3.org/1999/xlink" width="128" height="128"><defs><style type="text/css"></style></defs><path d="M276.754248 66.515033l96.324183 62.981699c4.920261 4.979085 3.704575 9.898039-3.704575 14.818301-12.388235 4.979085-25.933333 14.818301-40.752941 29.639216l-14.818301 18.522876 125.962092-7.40915 48.162092-51.866667 66.686275 55.571242 3.704575 7.40915c-2.490196 2.488889-4.979085 3.704575-7.40915 3.704575l-163.011765 7.40915c32.069281 19.797386 48.162092 40.752941 48.162092 62.981699-2.488889 19.797386-13.602614 32.128105-33.343791 37.048366-19.797386 2.488889-29.639216-2.431373-29.639216-14.818301-2.488889-41.968627-8.68366-69.117647-18.522876-81.505882l-62.981699 3.704575c-59.27451 54.355556-122.256209 109.926797-188.942484 166.715033-4.979085 4.979085-7.40915 2.488889-7.40915-7.40915C179.155556 267.847059 239.705882 165.328105 276.754248 66.515033zM287.867974 481.45098l-7.40915 366.773856c-2.488889 34.55817-21.014379 70.39085-55.571242 107.439216-9.898039 7.40915-16.09281 7.40915-18.522876 0l7.40915-270.449673 0-148.19085-3.704575-133.372549 85.210458 33.343791c2.431373 0 4.920261 1.273203 7.40915 3.704575l-3.704575 7.40915L287.867974 481.45098zM321.211765 303.622222c71.606536 22.228758 107.439216 42.026144 107.439216 59.277124-4.979085 29.639216-16.09281 49.435294-33.343791 59.277124-12.388235 7.40915-22.228758 3.704575-29.637908-11.113725-19.797386-54.299346-37.048366-87.64183-51.866667-100.030065C311.312418 303.622222 313.801307 301.189542 321.211765 303.622222zM432.355556 744.490196c-7.40915 22.228758-21.014379 40.752941-40.752941 55.571242-9.898039 7.40915-16.09281 4.977778-18.522876-7.40915L373.079739 548.137255c0-29.639216 0-54.298039 0-74.095425-2.488889-7.40915 0-8.626144 7.40915-3.704575l51.866667 33.343791 170.420915-7.40915 29.639216-40.752941 74.095425 40.752941c2.430065 0 3.704575 2.488889 3.704575 7.40915l-22.228758 33.343791 3.704575 159.305882c-2.490196 24.717647-17.308497 54.355556-44.457516 88.915033-12.389542 9.898039-22.228758 9.898039-29.639216 0-2.490196-7.40915-7.40915-16.035294-14.818301-25.933333-4.979085-9.840523-8.68366-17.249673-11.113725-22.228758L432.355556 744.490196zM606.481046 514.794771l-177.830065 3.704575 0 92.619608 151.896732-7.40915c4.920261 0 7.40915 2.488889 7.40915 7.40915 0 4.979085-3.704575 7.40915-11.113725 7.40915l-148.192157 7.40915 3.704575 103.734641 174.12549-7.40915L606.481046 514.794771zM621.299346 396.240523c-46.947712 0-85.210458 3.704575-114.848366 11.113725l-25.933333-25.933333 288.973856-14.818301 37.048366-40.752941 77.8 48.162092c0 2.488889 1.214379 3.704575 3.704575 3.704575 2.430065 2.488889 1.214379 4.979085-3.704575 7.40915l-29.639216 37.048366 3.704575 211.172549 3.704575 148.192157c4.920261 69.117647-32.128105 129.666667-111.143791 181.534641-4.979085 2.431373-8.68366 2.431373-11.113725 0-2.490196-2.488889-2.490196-6.193464 0-11.113725-2.490196-34.616993-14.818301-60.550327-37.048366-77.801307-2.490196-2.488889-3.704575-4.977778-3.704575-7.40915 0-2.488889 1.214379-3.704575 3.704575-3.704575 51.866667 2.431373 75.309804-9.898039 70.39085-37.048366l-3.704575-437.164706L621.299346 396.240523zM621.299346 59.104575l92.619608 55.571242c4.920261 2.488889 3.704575 6.193464-3.704575 11.113725-14.818301 4.979085-27.20915 14.818301-37.048366 29.639216-2.490196 2.488889-4.979085 6.193464-7.40915 11.113725-4.979085 7.40915-9.899346 13.603922-14.818301 18.522876l159.305882-7.40915 48.162092-51.866667 66.686275 55.571242c4.920261 4.979085 4.920261 7.40915 0 7.40915l-203.763399 11.113725c49.377778 27.206536 74.095425 51.866667 74.095425 74.095425-4.979085 22.228758-19.798693 39.537255-44.457516 51.866667-19.798693 2.488889-29.639216-3.704575-29.639216-18.522876-2.490196-51.866667-11.113725-87.64183-25.933333-107.439216l-59.277124 3.704575c-7.40915 7.40915-18.522876 19.797386-33.343791 37.048366-29.639216 37.048366-55.571242 66.686275-77.8 88.915033-4.979085 2.488889-8.68366 3.704575-11.113725 3.704575-2.490196 0-2.490196-2.431373 0-7.40915C563.237908 222.11634 599.071895 133.201307 621.299346 59.104575z" p-id="4915" fill="#2c2c2c"></path></svg>