<svg class="icon" viewBox="0 0 1024 1024" xmlns="http://www.w3.org/2000/svg" width="128" height="128"><defs><style/></defs><path d="M276.754 66.515l96.324 62.982c4.92 4.979 3.705 9.898-3.704 14.818-12.388 4.98-25.933 14.818-40.753 29.64l-14.818 18.522 125.962-7.409 48.162-51.867 66.686 55.572 3.705 7.409c-2.49 2.489-4.98 3.704-7.41 3.704l-163.011 7.41c32.069 19.797 48.162 40.752 48.162 62.981-2.49 19.798-13.603 32.128-33.344 37.048-19.797 2.49-29.64-2.43-29.64-14.818-2.488-41.968-8.683-69.117-18.522-81.506l-62.982 3.705C232.297 269.06 169.315 324.633 102.63 381.42c-4.98 4.979-7.41 2.489-7.41-7.41 83.937-106.164 144.487-208.683 181.535-307.496zm11.114 414.936l-7.41 366.774c-2.488 34.558-21.014 70.39-55.57 107.44-9.898 7.408-16.093 7.408-18.523 0l7.409-270.45V537.023l-3.705-133.373 85.21 33.344c2.432 0 4.921 1.273 7.41 3.704l-3.705 7.41-11.116 33.342zm33.344-177.829c71.606 22.229 107.439 42.026 107.439 59.277-4.98 29.64-16.093 49.436-33.344 59.277-12.388 7.41-22.229 3.705-29.638-11.113-19.797-54.3-37.048-87.642-51.866-100.03-2.49-7.41-.002-9.843 7.409-7.41zM432.356 744.49c-7.41 22.229-21.015 40.753-40.753 55.571-9.898 7.41-16.093 4.978-18.523-7.409v-318.61c-2.49-7.41 0-8.626 7.409-3.705l51.867 33.344 170.42-7.41 29.64-40.752 74.095 40.753c2.43 0 3.705 2.489 3.705 7.409l-22.23 33.344 3.706 159.306c-2.49 24.717-17.309 54.355-44.458 88.915-12.39 9.898-22.229 9.898-29.64 0-2.49-7.41-7.408-16.036-14.818-25.934-4.979-9.84-8.683-17.25-11.113-22.228l-159.307 7.406zM606.48 514.795l-177.83 3.704v92.62l151.897-7.41c4.92 0 7.409 2.49 7.409 7.41 0 4.979-3.705 7.41-11.114 7.41l-148.192 7.408 3.705 103.735 174.125-7.41V514.796zm14.818-118.554c-46.947 0-85.21 3.704-114.848 11.113l-25.933-25.933 288.974-14.818 37.048-40.753 77.8 48.162c0 2.489 1.214 3.704 3.704 3.704 2.43 2.49 1.215 4.98-3.704 7.41l-29.64 37.048 3.705 211.172 3.705 148.193c4.92 69.117-32.128 129.666-111.144 181.534-4.98 2.432-8.684 2.432-11.114 0-2.49-2.489-2.49-6.193 0-11.114-2.49-34.617-14.818-60.55-37.048-77.8-2.49-2.49-3.705-4.979-3.705-7.41 0-2.489 1.215-3.705 3.705-3.705 51.867 2.432 75.31-9.898 70.39-37.048l-3.704-437.165-148.19 7.41zm0-337.136l92.62 55.57c4.92 2.49 3.705 6.194-3.705 11.115-14.818 4.979-27.209 14.818-37.048 29.639-2.49 2.489-4.98 6.193-7.41 11.113-4.978 7.41-9.898 13.604-14.817 18.523l159.305-7.409 48.163-51.866 66.686 55.57c4.92 4.98 4.92 7.41 0 7.41l-203.764 11.114c49.378 27.206 74.096 51.866 74.096 74.095-4.98 22.229-19.799 39.537-44.458 51.867-19.798 2.489-29.639-3.705-29.639-18.523-2.49-51.867-11.114-87.642-25.933-107.44l-59.277 3.705c-7.41 7.41-18.523 19.798-33.344 37.049-29.64 37.048-55.571 66.686-77.8 88.915-4.98 2.489-8.684 3.704-11.114 3.704-2.49 0-2.49-2.431 0-7.409 49.378-103.73 85.212-192.646 107.44-266.742z" fill="#2c2c2c"/></svg>